<svg width="571" height="108" viewBox="0 0 571 108" fill="none" xmlns="http://www.w3.org/2000/svg">
<mask id="path-1-inside-1" fill="white">
<path d="M35.8851 26.5162C42.2942 26.5162 48.1673 28.9447 52.7338 32.9578L58.9397 25.2054C52.7003 19.7094 44.6584 16.3902 35.8873 16.3902C16.0982 16.3902 0 33.2621 0 53.9985C0 74.7396 16.0993 91.6114 35.8896 91.6044C44.6607 91.6044 52.7014 88.2853 58.9408 82.7893L52.7349 75.0368C48.0209 79.2013 42.0528 81.4832 35.8873 81.4785C21.4285 81.4785 9.66339 69.1511 9.66339 53.9985C9.66227 38.847 21.4285 26.5127 35.8896 26.5162H35.8851ZM234.532 18.5624H215.21C213.929 18.5627 212.701 19.096 211.796 20.045C210.89 20.994 210.381 22.281 210.381 23.623V84.3728C210.382 85.7147 210.891 87.0015 211.796 87.9506C212.702 88.8996 213.93 89.4333 215.21 89.4346H234.534C253.18 89.4346 268.348 73.5376 268.348 53.9973C268.348 34.4547 253.182 18.5577 234.529 18.5624H234.534H234.532ZM234.532 79.3121H220.041V28.6872H234.534C247.852 28.6872 258.681 40.0467 258.681 54.0008C258.687 67.9644 247.852 79.3086 234.529 79.3121H234.534H234.532ZM294.505 23.6254V84.3751C294.506 85.7171 295.016 87.0037 295.921 87.9526C296.827 88.9014 298.055 89.4348 299.335 89.4357H339.592V79.3121H304.168V59.0603H326.71V48.9367H304.167V28.686H339.591V18.5624H299.335C298.701 18.5618 298.073 18.6923 297.487 18.9465C296.901 19.2006 296.369 19.5734 295.921 20.0435C295.473 20.5137 295.117 21.0718 294.875 21.686C294.633 22.3003 294.509 22.9585 294.511 23.623H294.505V23.6254ZM440.731 23.6254V84.3751C440.732 85.7171 441.242 87.0037 442.147 87.9526C443.053 88.9014 444.281 89.4348 445.561 89.4357H485.816V79.3121H450.392V59.0603H472.936V48.9367H450.392V28.686H485.816V18.5624H445.564C444.929 18.5616 444.301 18.692 443.715 18.946C443.128 19.2001 442.596 19.5728 442.147 20.0429C441.698 20.5129 441.343 21.0711 441.1 21.6854C440.857 22.2998 440.733 22.9582 440.734 23.623H440.732L440.731 23.6254ZM394.758 18.5624H373.823C372.543 18.5627 371.315 19.096 370.409 20.045C369.504 20.994 368.995 22.281 368.995 23.623V89.4357H378.657V59.0603H394.76C405.414 59.0603 414.082 49.976 414.082 38.8119C414.081 27.6467 405.412 18.5577 394.754 18.5624H394.758ZM394.758 48.9355H378.655V28.6883H394.758C400.085 28.6883 404.417 33.2258 404.417 38.8119C404.417 44.398 400.085 48.9402 394.754 48.9355H394.758ZM561.343 18.5624V70.3917L521.579 20.3823C520.944 19.5826 520.089 19.0076 519.13 18.7357C518.172 18.4639 517.157 18.5084 516.224 18.8632C515.29 19.2175 514.484 19.8645 513.913 20.7161C513.343 21.5677 513.037 22.5827 513.036 23.623V89.4357H522.699V37.6076L562.463 87.6147C563.098 88.4136 563.952 88.9881 564.909 89.2595C565.867 89.531 566.881 89.4862 567.813 89.1314C568.746 88.7771 569.553 88.1302 570.123 87.2786C570.693 86.427 571 85.412 571 84.3716V18.5589H561.343V18.5624ZM182.937 36.7392C182.913 36.6082 182.892 36.4771 182.858 36.3495C182.838 36.2723 182.814 36.1997 182.789 36.1236C182.755 36.0098 182.717 35.8973 182.675 35.7866C182.645 35.7093 182.611 35.6344 182.577 35.5607C182.531 35.4559 182.481 35.3532 182.426 35.2529C182.387 35.1791 182.342 35.1089 182.3 35.0375C182.138 34.7743 181.951 34.5288 181.742 34.3049C181.684 34.244 181.626 34.182 181.563 34.1223C181.483 34.0455 181.399 33.9725 181.313 33.9035C181.246 33.8496 181.181 33.7946 181.112 33.7443C181.086 33.7256 181.065 33.7033 181.038 33.6858L133.941 0.780009C133.214 0.271426 132.359 0 131.485 0C130.611 0 129.756 0.271426 129.029 0.780009L81.9294 33.6846C81.9026 33.7022 81.8814 33.7244 81.8557 33.7431C81.7865 33.7946 81.7217 33.8484 81.6547 33.9011C81.5018 34.0219 81.3588 34.1558 81.227 34.3014C81.0146 34.5243 80.827 34.7717 80.6675 35.0387C80.6239 35.1101 80.5815 35.1791 80.5413 35.254C80.4855 35.3547 80.4374 35.4577 80.3916 35.5595C80.3581 35.6344 80.3224 35.7093 80.2923 35.7854C80.2498 35.8962 80.2114 36.0086 80.1772 36.1225C80.1549 36.1985 80.1292 36.2723 80.1102 36.3413C80.0767 36.4689 80.0544 36.5988 80.032 36.731C80.0198 36.7977 80.0041 36.8633 79.9963 36.9312C79.9707 37.1321 79.9577 37.3347 79.9572 37.5374V70.4514C79.9572 70.655 79.9706 70.8587 79.9985 71.0576C80.0086 71.1302 80.0265 71.1887 80.0399 71.2589C80.0622 71.39 80.0823 71.5199 80.1236 71.651C80.1426 71.7235 80.1649 71.7973 80.1929 71.8769C80.2275 71.9939 80.2621 72.1098 80.3045 72.2163C80.3336 72.2888 80.3738 72.3614 80.4006 72.434C80.5255 72.7197 80.6842 72.9879 80.873 73.2321C80.921 73.3047 80.9701 73.3632 81.026 73.4334C81.0963 73.52 81.1644 73.6078 81.2471 73.6851C81.304 73.7436 81.3588 73.815 81.428 73.8595C81.5084 73.932 81.5955 74.0046 81.6782 74.0806C81.7452 74.1392 81.8166 74.1825 81.8725 74.2386C81.8982 74.2527 81.9138 74.2819 81.9417 74.296L129.029 107.218C129.773 107.742 130.626 108.005 131.486 108C132.36 107.998 133.215 107.727 133.943 107.219L181.043 74.3124C181.068 74.296 181.091 74.2749 181.115 74.2562C181.186 74.2047 181.25 74.1509 181.316 74.097C181.403 74.0268 181.488 73.9519 181.569 73.877C181.629 73.8197 181.687 73.7576 181.746 73.6968C181.88 73.5552 182.003 73.4039 182.116 73.2438C182.227 73.0839 182.332 72.9187 182.428 72.7488C182.485 72.6481 182.535 72.544 182.581 72.4398C182.615 72.3649 182.648 72.2912 182.68 72.2151C182.722 72.1034 182.76 71.9902 182.794 71.8757C182.817 71.8008 182.842 71.7271 182.863 71.651C182.895 71.5222 182.918 71.3923 182.941 71.2613C182.952 71.1945 182.969 71.129 182.975 71.0611C183 70.8598 183.015 70.6597 183.015 70.4537V37.5468C183.014 37.344 183.001 37.1416 182.976 36.9405C182.965 36.8691 182.943 36.8106 182.93 36.7392H182.937ZM131.484 64.9788L115.822 54.0008L131.484 43.0205L147.148 54.0008L131.484 64.9788ZM127.057 34.9591L107.857 48.4171L92.36 37.5526L127.058 13.311V34.9591H127.057ZM99.8926 53.9985L88.8154 61.7638V46.2332L99.8938 53.9985H99.8926ZM107.857 59.5869L127.057 73.0437V94.6895L92.3589 70.4455L107.857 59.5823V59.5858V59.5869ZM135.913 73.0402L155.112 59.5834L170.611 70.4467L135.913 94.6883V73.0402ZM163.077 54.002L174.155 46.2355V61.7661L163.077 53.9985V54.002ZM155.112 48.4171L135.913 34.9603V13.311L170.611 37.5526L155.112 48.4171Z"/>
</mask>
<path d="M35.8851 26.5162C42.2942 26.5162 48.1673 28.9447 52.7338 32.9578L58.9397 25.2054C52.7003 19.7094 44.6584 16.3902 35.8873 16.3902C16.0982 16.3902 0 33.2621 0 53.9985C0 74.7396 16.0993 91.6114 35.8896 91.6044C44.6607 91.6044 52.7014 88.2853 58.9408 82.7893L52.7349 75.0368C48.0209 79.2013 42.0528 81.4832 35.8873 81.4785C21.4285 81.4785 9.66339 69.1511 9.66339 53.9985C9.66227 38.847 21.4285 26.5127 35.8896 26.5162H35.8851ZM234.532 18.5624H215.21C213.929 18.5627 212.701 19.096 211.796 20.045C210.89 20.994 210.381 22.281 210.381 23.623V84.3728C210.382 85.7147 210.891 87.0015 211.796 87.9506C212.702 88.8996 213.93 89.4333 215.21 89.4346H234.534C253.18 89.4346 268.348 73.5376 268.348 53.9973C268.348 34.4547 253.182 18.5577 234.529 18.5624H234.534H234.532ZM234.532 79.3121H220.041V28.6872H234.534C247.852 28.6872 258.681 40.0467 258.681 54.0008C258.687 67.9644 247.852 79.3086 234.529 79.3121H234.534H234.532ZM294.505 23.6254V84.3751C294.506 85.7171 295.016 87.0037 295.921 87.9526C296.827 88.9014 298.055 89.4348 299.335 89.4357H339.592V79.3121H304.168V59.0603H326.71V48.9367H304.167V28.686H339.591V18.5624H299.335C298.701 18.5618 298.073 18.6923 297.487 18.9465C296.901 19.2006 296.369 19.5734 295.921 20.0435C295.473 20.5137 295.117 21.0718 294.875 21.686C294.633 22.3003 294.509 22.9585 294.511 23.623H294.505V23.6254ZM440.731 23.6254V84.3751C440.732 85.7171 441.242 87.0037 442.147 87.9526C443.053 88.9014 444.281 89.4348 445.561 89.4357H485.816V79.3121H450.392V59.0603H472.936V48.9367H450.392V28.686H485.816V18.5624H445.564C444.929 18.5616 444.301 18.692 443.715 18.946C443.128 19.2001 442.596 19.5728 442.147 20.0429C441.698 20.5129 441.343 21.0711 441.1 21.6854C440.857 22.2998 440.733 22.9582 440.734 23.623H440.732L440.731 23.6254ZM394.758 18.5624H373.823C372.543 18.5627 371.315 19.096 370.409 20.045C369.504 20.994 368.995 22.281 368.995 23.623V89.4357H378.657V59.0603H394.76C405.414 59.0603 414.082 49.976 414.082 38.8119C414.081 27.6467 405.412 18.5577 394.754 18.5624H394.758ZM394.758 48.9355H378.655V28.6883H394.758C400.085 28.6883 404.417 33.2258 404.417 38.8119C404.417 44.398 400.085 48.9402 394.754 48.9355H394.758ZM561.343 18.5624V70.3917L521.579 20.3823C520.944 19.5826 520.089 19.0076 519.13 18.7357C518.172 18.4639 517.157 18.5084 516.224 18.8632C515.29 19.2175 514.484 19.8645 513.913 20.7161C513.343 21.5677 513.037 22.5827 513.036 23.623V89.4357H522.699V37.6076L562.463 87.6147C563.098 88.4136 563.952 88.9881 564.909 89.2595C565.867 89.531 566.881 89.4862 567.813 89.1314C568.746 88.7771 569.553 88.1302 570.123 87.2786C570.693 86.427 571 85.412 571 84.3716V18.5589H561.343V18.5624ZM182.937 36.7392C182.913 36.6082 182.892 36.4771 182.858 36.3495C182.838 36.2723 182.814 36.1997 182.789 36.1236C182.755 36.0098 182.717 35.8973 182.675 35.7866C182.645 35.7093 182.611 35.6344 182.577 35.5607C182.531 35.4559 182.481 35.3532 182.426 35.2529C182.387 35.1791 182.342 35.1089 182.3 35.0375C182.138 34.7743 181.951 34.5288 181.742 34.3049C181.684 34.244 181.626 34.182 181.563 34.1223C181.483 34.0455 181.399 33.9725 181.313 33.9035C181.246 33.8496 181.181 33.7946 181.112 33.7443C181.086 33.7256 181.065 33.7033 181.038 33.6858L133.941 0.780009C133.214 0.271426 132.359 0 131.485 0C130.611 0 129.756 0.271426 129.029 0.780009L81.9294 33.6846C81.9026 33.7022 81.8814 33.7244 81.8557 33.7431C81.7865 33.7946 81.7217 33.8484 81.6547 33.9011C81.5018 34.0219 81.3588 34.1558 81.227 34.3014C81.0146 34.5243 80.827 34.7717 80.6675 35.0387C80.6239 35.1101 80.5815 35.1791 80.5413 35.254C80.4855 35.3547 80.4374 35.4577 80.3916 35.5595C80.3581 35.6344 80.3224 35.7093 80.2923 35.7854C80.2498 35.8962 80.2114 36.0086 80.1772 36.1225C80.1549 36.1985 80.1292 36.2723 80.1102 36.3413C80.0767 36.4689 80.0544 36.5988 80.032 36.731C80.0198 36.7977 80.0041 36.8633 79.9963 36.9312C79.9707 37.1321 79.9577 37.3347 79.9572 37.5374V70.4514C79.9572 70.655 79.9706 70.8587 79.9985 71.0576C80.0086 71.1302 80.0265 71.1887 80.0399 71.2589C80.0622 71.39 80.0823 71.5199 80.1236 71.651C80.1426 71.7235 80.1649 71.7973 80.1929 71.8769C80.2275 71.9939 80.2621 72.1098 80.3045 72.2163C80.3336 72.2888 80.3738 72.3614 80.4006 72.434C80.5255 72.7197 80.6842 72.9879 80.873 73.2321C80.921 73.3047 80.9701 73.3632 81.026 73.4334C81.0963 73.52 81.1644 73.6078 81.2471 73.6851C81.304 73.7436 81.3588 73.815 81.428 73.8595C81.5084 73.932 81.5955 74.0046 81.6782 74.0806C81.7452 74.1392 81.8166 74.1825 81.8725 74.2386C81.8982 74.2527 81.9138 74.2819 81.9417 74.296L129.029 107.218C129.773 107.742 130.626 108.005 131.486 108C132.36 107.998 133.215 107.727 133.943 107.219L181.043 74.3124C181.068 74.296 181.091 74.2749 181.115 74.2562C181.186 74.2047 181.25 74.1509 181.316 74.097C181.403 74.0268 181.488 73.9519 181.569 73.877C181.629 73.8197 181.687 73.7576 181.746 73.6968C181.88 73.5552 182.003 73.4039 182.116 73.2438C182.227 73.0839 182.332 72.9187 182.428 72.7488C182.485 72.6481 182.535 72.544 182.581 72.4398C182.615 72.3649 182.648 72.2912 182.68 72.2151C182.722 72.1034 182.76 71.9902 182.794 71.8757C182.817 71.8008 182.842 71.7271 182.863 71.651C182.895 71.5222 182.918 71.3923 182.941 71.2613C182.952 71.1945 182.969 71.129 182.975 71.0611C183 70.8598 183.015 70.6597 183.015 70.4537V37.5468C183.014 37.344 183.001 37.1416 182.976 36.9405C182.965 36.8691 182.943 36.8106 182.93 36.7392H182.937ZM131.484 64.9788L115.822 54.0008L131.484 43.0205L147.148 54.0008L131.484 64.9788ZM127.057 34.9591L107.857 48.4171L92.36 37.5526L127.058 13.311V34.9591H127.057ZM99.8926 53.9985L88.8154 61.7638V46.2332L99.8938 53.9985H99.8926ZM107.857 59.5869L127.057 73.0437V94.6895L92.3589 70.4455L107.857 59.5823V59.5858V59.5869ZM135.913 73.0402L155.112 59.5834L170.611 70.4467L135.913 94.6883V73.0402ZM163.077 54.002L174.155 46.2355V61.7661L163.077 53.9985V54.002ZM155.112 48.4171L135.913 34.9603V13.311L170.611 37.5526L155.112 48.4171Z" fill="#FCFCFC" stroke="white" stroke-width="9.76344" mask="url(#path-1-inside-1)"/>
</svg>
