<svg width="142" height="27" viewBox="0 0 142 27" fill="none" xmlns="http://www.w3.org/2000/svg">
<path fill-rule="evenodd" clip-rule="evenodd" d="M5.1287 17.7451C5.1287 18.0882 5.18661 18.4915 5.31994 18.9486C5.4489 19.4089 5.71227 19.845 6.08493 20.2557C6.46633 20.6706 7.0051 21.0211 7.72637 21.3061C8.43126 21.5922 9.37219 21.7327 10.5372 21.7327C11.1797 21.7327 11.8081 21.6841 12.4376 21.5986C13.0693 21.5067 13.6354 21.3452 14.1566 21.1161C14.6615 20.8881 15.0735 20.5671 15.3905 20.1522C15.7128 19.7383 15.8724 19.202 15.8724 18.5337C15.8724 18.0555 15.7653 17.6553 15.5424 17.3323C15.3019 17.0061 14.9927 16.7421 14.5796 16.5236C14.1566 16.3082 13.6681 16.1161 13.101 15.9577C12.5283 15.7993 11.913 15.6367 11.2431 15.4731L8.49901 14.8576C7.46628 14.6274 6.45103 14.3783 5.4784 14.0996C4.50687 13.8272 3.64571 13.4271 2.89821 12.9161C2.14852 12.4009 1.54855 11.7188 1.083 10.8795C0.620733 10.0529 0.386865 8.95066 0.386865 7.60141C0.386865 7.14322 0.446971 6.63223 0.545327 6.08641C0.655704 5.53636 0.836022 4.98209 1.0994 4.41727C1.36058 3.85561 1.7245 3.30556 2.18459 2.77135C2.65341 2.23291 3.24573 1.76416 3.98449 1.35453C4.71997 0.960734 5.59424 0.630284 6.61823 0.380071C7.64004 0.127746 8.83779 0 10.2148 0C12.1524 0 13.772 0.276607 15.0582 0.825598C16.3423 1.3767 17.3554 2.0566 18.1204 2.85686C18.881 3.65924 19.4099 4.52178 19.7214 5.45401C20.0219 6.37885 20.1782 7.22557 20.1782 7.97937H15.0582C15.0069 7.70804 14.9271 7.35437 14.8222 6.92784C14.7184 6.5066 14.4856 6.10013 14.1293 5.71056C13.772 5.31782 13.2507 4.98209 12.5873 4.69704C11.9087 4.41093 10.9841 4.26418 9.82135 4.26418C9.32411 4.26418 8.8061 4.31908 8.27607 4.41727C7.73839 4.52178 7.2641 4.69387 6.82806 4.91875C6.40295 5.14679 6.04996 5.45401 5.78877 5.83092C5.50463 6.21099 5.37458 6.6713 5.37458 7.22557C5.37458 7.70804 5.45655 8.10184 5.63796 8.40801C5.81281 8.7184 6.04887 8.9665 6.31443 9.1502C6.59529 9.33285 6.88489 9.46904 7.20728 9.56194C7.52529 9.65063 7.82254 9.73298 8.07718 9.80266L14.3085 11.2828C15.1806 11.4866 16.0265 11.7389 16.8374 12.0366C17.6428 12.3365 18.3553 12.7355 18.9684 13.2402C19.5924 13.7459 20.0831 14.3783 20.4416 15.1342C20.8208 15.8848 21 16.8171 21 17.9161C21 19.1587 20.8044 20.2187 20.4164 21.0981C20.0175 21.9797 19.5181 22.7219 18.881 23.3163C18.2526 23.9138 17.5608 24.3889 16.7958 24.7426C16.0418 25.1047 15.2834 25.3687 14.5391 25.5534C13.7905 25.7371 13.101 25.8533 12.4518 25.9145C11.8125 25.9673 11.3131 26 10.9229 26C8.59955 26 6.72096 25.7139 5.28716 25.1417C3.84789 24.5631 2.73319 23.8674 1.95072 23.0238C1.1748 22.1908 0.650239 21.2882 0.386865 20.3274C0.128955 19.3593 0 18.4999 0 17.7451H5.1287Z" fill="white"/>
<path fill-rule="evenodd" clip-rule="evenodd" d="M46 16.6832C46 18.3202 45.7604 19.7212 45.2863 20.8934C44.8196 22.0666 44.1425 23.0351 43.253 23.7894C42.3719 24.5478 41.2972 25.1078 40.0414 25.463C38.7857 25.8161 37.374 26 35.8085 26C35.2361 26 34.6072 25.9561 33.9249 25.8767C33.2457 25.7952 32.5571 25.6354 31.8591 25.4139C31.1496 25.1799 30.4517 24.8686 29.783 24.4914C29.1007 24.1164 28.4874 23.6212 27.9349 22.9954C27.2694 22.2359 26.7828 21.3562 26.4971 20.3595C26.2103 19.3587 26.0408 18.2346 26 16.9955V0H31.2878V16.655C31.2878 17.5242 31.4008 18.2722 31.6279 18.8917C31.8591 19.5112 32.1762 20.0252 32.5802 20.4264C32.9799 20.8276 33.4508 21.1253 33.9939 21.3238C34.5381 21.515 35.1011 21.6174 35.708 21.6174C37.4975 21.6174 38.7857 21.2079 39.5548 20.3888C40.3303 19.5708 40.7195 18.4111 40.7195 16.8942V0H46V16.6832Z" fill="white"/>
<path fill-rule="evenodd" clip-rule="evenodd" d="M58.5809 26H53V0H72V4.52652H58.5809V10.7791H70.3267V15.1864H58.5809V26Z" fill="white"/>
<path fill-rule="evenodd" clip-rule="evenodd" d="M82.5809 26H77V0H96V4.52652H82.5809V10.7791H94.3278V15.1864H82.5809V26Z" fill="white"/>
<path fill-rule="evenodd" clip-rule="evenodd" d="M104.002 26H98L103.993 0H110L104.002 26Z" fill="white"/>
<path fill-rule="evenodd" clip-rule="evenodd" d="M114.168 0H127.17V1.01385H121.976L128.045 11.3156L135.234 1.01385H130.63V0H140.498V1.01385H136.624L128.789 12.391L137.642 25.9872H142V27H128.675V25.9872H132.876L126.473 15.799L119.258 25.9872H124.072V27H114V25.9872H117.837L125.698 14.757L117.266 1.01385H114.168V0Z" fill="white"/>
</svg>
